<?xml version="1.0" encoding="utf-8"?>
<?xml-stylesheet type="text/xsl" href="rss1.xsl"?>
<rss version="2.0" xmlns:atom="http://www.w3.org/2005/Atom" xmlns:content="http://purl.org/rss/1.0/modules/content/" xmlns:dc="http://purl.org/dc/elements/1.1/" xmlns:media="http://search.yahoo.com/mrss/">
<channel>
 <title>Getty</title>
 <link>http://www.gettyimg.com/</link>
 <atom:link href="http://www.gettyimg.com/" rel="self" type="application/rss+xml" />

 
                <item>
                <title><![CDATA[【VH1 HD】Armin van Buuren pres. Gaia - Status Excessu D (VH1HD 1080i DD 2.0)]]></title>
                <link><![CDATA[https://sharemania.us/threads/armin-van-buuren-pres-gaia-status-excessu-d-vh1hd-1080i-dd-2-0.250510/]]></link>
                <description><![CDATA[<article>
<blockquote class="messageText SelectQuoteContainer ugc baseHtml">
<img src="https://i.imgur.com/lMZTyhY.jpeg" class="bbCodeImage LbImage" alt="[​IMG]" data-url="https://i.imgur.com/lMZTyhY.jpeg" style=""><br>
<br>
General<br>
ID : 1 (0x1)<br>
Complete name : D:\dell\Armin van Buuren pres. Gaia - Status Excessu D.ts<br>
Format : MPEG-TS<br>
File size : 140 MiB<br>
Duration : 2 min 51 s<br>
Overall bit rate mode : Variable<br>
Overall bit rate : 6 859 kb/s<br>
<br>
Video<br>
ID : 68 (0x44)<br>
Menu ID : 1 (0x1)<br>
Format : AVC<br>
Format/Info : Advanced Video Codec<br>
Format profile : High@L4<br>
Format settings : CABAC / 3 Ref Frames<br>
Format settings, CABAC : Yes<br>
Format settings, Reference : 3 frames<br>
Codec ID : 27<br>
Duration : 2 min 51 s<br>
Bit rate : 6 132 kb/s<br>
Width : 1 920 pixels<br>
Height : 1 080 pixels<br>
Display aspect ratio : 16:9<br>
Frame rate : 29.970 (30000/1001) FPS<br>
Color space : YUV<br>
Chroma subsampling : 4:2:0<br>
Bit depth : 8 bits<br>
Scan type : MBAFF<br>
Scan type, store method : Interleaved fields<br>
Scan order : Top Field First<br>
Bits/(Pixel*Frame) : 0.099<br>
Stream size : 126 MiB (89%)<br>
<br>
Audio<br>
ID : 69 (0x45)<br>
Menu ID : 1 (0x1)<br>
Format : AC-3<br>
Format/Info : Audio Coding 3<br>
Commercial name : Dolby Digital<br>
Codec ID : 129<br>
Duration : 2 min 51 s<br>
Bit rate mode : Constant<br>
Bit rate : 384 kb/s<br>
Channel(s) : 2 channels<br>
Channel layout : L R<br>
Sampling rate : 48.0 kHz<br>
Frame rate : 31.250 FPS (1536 SPF)<br>
Compression mode : Lossy<br>
Stream size : 7.86 MiB (6%)<br>
Language : English<br>
Service kind : Complete Main<br>
<br>
Text #1<br>
ID : 68 (0x44)-CC1<br>
Menu ID : 1 (0x1)<br>
Format : EIA-608<br>
Muxing mode : SCTE 128 / DTVCC Transport<br>
Muxing mode, more info : Muxed in Video #1<br>
Duration : 2 min 51 s<br>
Bit rate mode : Constant<br>
Stream size : 0.00 Byte (0%)<br>
CaptionServiceName : CC1<br>
<br>
Text #2<br>
ID : 68 (0x44)-CC4<br>
Menu ID : 1 (0x1)<br>
Format : EIA-608<br>
Muxing mode : SCTE 128 / DTVCC Transport<br>
Muxing mode, more info : Muxed in Video #1<br>
Duration : 2 min 51 s<br>
Bit rate mode : Constant<br>
Stream size : 0.00 Byte (0%)<br>
CaptionServiceName : CC4<br>
<br>
Text #3<br>
ID : 68 (0x44)-1<br>
Menu ID : 1 (0x1)<br>
Format : EIA-708<br>
Muxing mode : SCTE 128 / DTVCC Transport<br>
Muxing mode, more info : Muxed in Video #1<br>
Duration : 2 min 51 s<br>
Bit rate mode : Constant<br>
Stream size : 0.00 Byte (0%)<br>
<br>
<br>
<div class="bbCodeBlock bbCodeVfcHH HiddenContent">
<div class="attribution type">Hidden Content:</div>
<blockquote>You must either reply or click 'Like' to see the hidden information contained here.</blockquote>
</div>
<div class="messageTextEndMarker">&nbsp;</div>
</blockquote>
</article>]]></description>
                <author><![CDATA[ovivo]]></author>
                </item>

                </channel></rss>